<svg width="20" height="26" viewBox="0 0 20 26" fill="none" xmlns="http://www.w3.org/2000/svg">
<g clipPath="url(#clip0_3531_13955)">
<path fillRule="evenodd" clipRule="evenodd" d="M10 3C4.475 3 0 7.475 0 13C0 17.425 2.8625 21.1625 6.8375 22.4875C7.3375 22.575 7.525 22.275 7.525 22.0125C7.525 21.775 7.5125 20.9875 7.5125 20.15C5 20.6125 4.35 19.5375 4.15 18.975C4.0375 18.6875 3.55 17.8 3.125 17.5625C2.775 17.375 2.275 16.9125 3.1125 16.9C3.9 16.8875 4.4625 17.625 4.65 17.925C5.55 19.4375 6.9875 19.0125 7.5625 18.75C7.65 18.1 7.9125 17.6625 8.2 17.4125C5.975 17.1625 3.65 16.3 3.65 12.475C3.65 11.3875 4.0375 10.4875 4.675 9.7875C4.575 9.5375 4.225 8.5125 4.775 7.1375C4.775 7.1375 5.6125 6.875 7.525 8.1625C8.325 7.9375 9.175 7.825 10.025 7.825C10.875 7.825 11.725 7.9375 12.525 8.1625C14.4375 6.8625 15.275 7.1375 15.275 7.1375C15.825 8.5125 15.475 9.5375 15.375 9.7875C16.0125 10.4875 16.4 11.375 16.4 12.475C16.4 16.3125 14.0625 17.1625 11.8375 17.4125C12.2 17.725 12.5125 18.325 12.5125 19.2625C12.5125 20.6 12.5 21.675 12.5 22.0125C12.5 22.275 12.6875 22.5875 13.1875 22.4875C15.1727 21.8173 16.8977 20.5415 18.1198 18.8395C19.3419 17.1376 19.9995 15.0953 20 13C20 7.475 15.525 3 10 3Z" fill="black" fillOpacity="0.6"/>
</g>
<defs>
<clipPath id="clip0_3531_13955">
<rect width="20" height="20" fill="white" transform="translate(0 3)"/>
</clipPath>
</defs>
</svg>
